<?xml version="1.0" standalone="no"?>
<!DOCTYPE svg PUBLIC "-//W3C//DTD SVG 20010904//EN"
 "http://www.w3.org/TR/2001/REC-SVG-20010904/DTD/svg10.dtd">
<svg version="1.0" xmlns="http://www.w3.org/2000/svg"
 width="928.000000pt" height="928.000000pt" viewBox="0 0 928.000000 928.000000"
 preserveAspectRatio="xMidYMid meet">
<metadata>
Created by potrace 1.11, written by Peter Selinger 2001-2013
</metadata>
<g transform="translate(0.000000,928.000000) scale(0.100000,-0.100000)"
fill="#000000" stroke="none">
<path d="M0 4640 l0 -2800 410 0 410 0 2 2085 3 2086 97 -118 c53 -65 109
-133 125 -152 15 -18 35 -42 43 -52 8 -9 29 -34 45 -55 35 -43 247 -302 267
-324 7 -9 37 -45 66 -80 105 -127 127 -154 142 -170 8 -9 34 -40 57 -70 23
-30 53 -66 65 -80 13 -14 39 -45 58 -70 19 -24 42 -52 50 -61 30 -32 95 -112
104 -127 4 -8 16 -22 25 -31 16 -17 42 -48 151 -181 93 -113 118 -144 231
-280 209 -253 236 -286 279 -340 25 -30 49 -60 55 -66 12 -13 60 -71 156 -189
40 -49 76 -92 79 -95 3 -3 37 -43 75 -90 38 -47 74 -90 80 -97 5 -7 15 -18 20
-25 20 -26 307 -374 333 -404 15 -17 34 -40 42 -50 55 -69 254 -310 259 -314
3 -3 44 -52 91 -110 96 -119 112 -139 156 -189 16 -20 70 -85 120 -146 104
-128 125 -153 141 -171 7 -7 13 -17 13 -23 0 -17 817 -15 822 2 2 6 3 332 2
722 l-2 710 525 521 525 521 37 -41 c20 -22 41 -46 46 -52 6 -6 39 -44 75 -84
36 -41 74 -84 85 -96 11 -12 40 -46 65 -74 25 -29 59 -67 75 -85 17 -18 43
-48 59 -66 16 -19 59 -68 96 -109 37 -41 75 -86 86 -99 10 -13 26 -31 35 -40
18 -18 108 -119 154 -172 75 -86 211 -240 240 -273 6 -6 44 -49 85 -96 41 -46
80 -89 85 -96 6 -6 35 -39 65 -74 30 -34 75 -85 100 -113 25 -27 52 -58 60
-69 8 -10 31 -36 50 -56 19 -21 64 -71 100 -112 36 -40 70 -78 75 -84 6 -6 39
-45 75 -86 36 -41 68 -77 71 -80 4 -3 23 -25 44 -49 20 -25 69 -81 108 -125
80 -88 94 -104 152 -171 82 -95 17 -85 559 -85 380 1 478 3 466 13 -8 7 -27
28 -42 47 -14 19 -39 49 -55 66 -15 17 -44 51 -63 75 -19 24 -47 57 -62 74
-15 16 -53 61 -85 100 -56 66 -72 86 -112 130 -10 11 -64 76 -122 145 -57 69
-106 127 -109 130 -3 3 -68 79 -145 170 -76 91 -145 172 -152 180 -29 33 -75
86 -96 113 -12 16 -38 47 -57 69 -19 22 -43 50 -52 62 -10 12 -26 30 -36 41
-10 11 -54 63 -98 115 -43 52 -84 100 -90 106 -5 6 -26 30 -45 53 -18 24 -47
57 -62 74 -16 18 -49 58 -74 90 -25 31 -50 57 -54 57 -5 0 -9 5 -9 10 0 6 -10
21 -22 33 -13 13 -39 42 -58 66 -19 24 -43 53 -53 64 -10 12 -37 44 -60 71
-23 27 -47 54 -52 60 -6 6 -30 36 -55 66 -25 30 -61 72 -80 93 -19 21 -39 46
-44 55 -5 10 -15 22 -22 27 -7 6 -41 44 -76 86 -133 159 -154 183 -173 205
-11 12 -38 43 -60 70 -105 126 -169 201 -191 226 -13 14 -24 31 -24 36 0 5 42
53 93 105 50 52 205 211 342 352 138 141 300 308 360 370 61 62 223 228 360
370 138 141 295 303 350 359 55 57 200 206 322 332 123 126 310 319 417 429
l195 200 -464 3 -465 2 -984 -987 c-542 -544 -1241 -1246 -1555 -1560 -314
-315 -572 -573 -574 -573 -2 0 -4 701 -4 1558 l0 1557 -478 0 -479 0 -1 -2077
c0 -1142 -3 -2080 -7 -2084 -5 -4 -8 -2 -8 4 0 6 -6 17 -13 24 -7 7 -44 51
-82 98 -38 47 -74 90 -80 96 -5 6 -23 28 -40 49 -16 21 -39 48 -50 61 -11 12
-33 39 -50 60 -16 20 -55 67 -85 104 -30 36 -71 85 -90 109 -19 24 -40 48 -45
55 -6 6 -62 74 -125 151 -63 77 -119 145 -125 151 -13 15 -62 73 -180 219 -54
66 -103 125 -109 130 -6 6 -24 27 -39 48 -16 20 -40 49 -53 62 -14 14 -21 25
-17 25 4 0 3 4 -2 8 -6 4 -37 39 -70 78 -33 40 -78 93 -100 119 -22 27 -44 55
-49 64 -5 9 -13 18 -17 21 -3 3 -55 64 -113 135 -59 72 -117 142 -129 156 -12
14 -40 48 -62 75 -22 26 -76 92 -120 144 -44 53 -93 113 -110 134 -16 22 -35
44 -40 50 -6 6 -30 36 -55 66 -25 30 -49 60 -55 66 -5 7 -26 31 -44 54 -19 23
-41 48 -48 56 -7 7 -13 15 -13 18 0 3 -8 14 -17 24 -21 21 -65 73 -108 128
-16 20 -35 42 -40 48 -6 6 -38 45 -70 86 -33 41 -62 77 -65 80 -6 6 -98 115
-120 143 -8 11 -20 24 -25 31 -6 6 -54 65 -108 131 -54 66 -106 129 -116 140
-9 11 -37 45 -61 75 -25 30 -47 57 -50 60 -3 3 -46 55 -95 115 -49 61 -94 115
-100 121 -5 6 -62 75 -125 152 l-115 141 -337 1 -338 0 0 -2800z"/>
</g>
</svg>
